<svg width="240" height="128" viewBox="0 0 120 64" fill="none" xmlns="http://www.w3.org/2000/svg">
  <mask id="logo-mask">
    <path d="M0 8C0 3.58172 3.58172 0 8 0H16C33.6731 0 48 14.3269 48 32C48 49.6731 33.6731 64 16 64H8C3.58172 64 0 60.4183 0 56V8Z"/>
    <path d="M52 4C52 1.79086 53.7909 0 56 0H80C82.2091 0 84 1.79086 84 4V35.5556C84 51.265 71.265 64 55.5556 64C53.5919 64 52 62.4081 52 60.4444V4Z"/>
    <path d="M92 0C89.7909 0 88 1.79086 88 4V60.4444C88 62.4081 89.5919 64 91.5556 64C107.265 64 120 51.265 120 35.5556V4C120 1.79086 118.209 0 116 0H92Z" />
  </mask>
</svg>
